<svg xmlns="http://www.w3.org/2000/svg" viewBox="0 0 120 120">
  <defs>
    <linearGradient id="g1" x1="0%" y1="0%" x2="100%" y2="100%">
      <stop offset="0%" stop-color="#8a6a34"/>
      <stop offset="22%" stop-color="#c99a4e"/>
      <stop offset="45%" stop-color="#f0dcae"/>
      <stop offset="60%" stop-color="#b3813f"/>
      <stop offset="80%" stop-color="#dcb975"/>
      <stop offset="100%" stop-color="#8a6a34"/>
    </linearGradient>
    <linearGradient id="g2" x1="20%" y1="0%" x2="80%" y2="100%">
      <stop offset="0%" stop-color="#6e4d26"/>
      <stop offset="35%" stop-color="#a9743f"/>
      <stop offset="55%" stop-color="#d9b06a"/>
      <stop offset="75%" stop-color="#8a5c30"/>
      <stop offset="100%" stop-color="#5c3d1e"/>
    </linearGradient>
  </defs>
  <rect width="120" height="120" rx="24" fill="#050506"/>
  <circle cx="60" cy="60" r="46" fill="none" stroke="url(#g1)" stroke-width="2" opacity="0.55"/>
  <path d="M56 50 C58 44 62 44 64 50 C65 62 64 78 60 88 C56 78 55 62 56 50 Z" fill="url(#g2)"/>
  <g>
    <path d="M60 52 C68 42 78 38 88 40 C80 50 72 56 64 58 Z" fill="url(#g2)" opacity="0.95"/>
    <path d="M60 56 C70 48 82 46 94 50 C84 60 74 64 64 63 Z" fill="url(#g2)"/>
    <path d="M60 60 C72 54 86 54 100 60 C88 70 76 72 64 68 Z" fill="url(#g2)" opacity="0.92"/>
  </g>
  <g transform="scale(-1,1) translate(-120,0)">
    <path d="M60 52 C68 42 78 38 88 40 C80 50 72 56 64 58 Z" fill="url(#g2)" opacity="0.95"/>
    <path d="M60 56 C70 48 82 46 94 50 C84 60 74 64 64 63 Z" fill="url(#g2)"/>
    <path d="M60 60 C72 54 86 54 100 60 C88 70 76 72 64 68 Z" fill="url(#g2)" opacity="0.92"/>
  </g>
  <ellipse cx="60" cy="45" rx="4.4" ry="5.2" fill="url(#g1)"/>
  <path d="M56.5 46 L60 52 L63.5 46 Z" fill="#050506" opacity="0.55"/>
</svg>
